<?xml version="1.0" standalone="no"?>
<!DOCTYPE svg PUBLIC "-//W3C//DTD SVG 20010904//EN"
 "http://www.w3.org/TR/2001/REC-SVG-20010904/DTD/svg10.dtd">
<svg version="1.0" xmlns="http://www.w3.org/2000/svg"
 width="364.000000pt" height="364.000000pt" viewBox="0 0 364.000000 364.000000"
 preserveAspectRatio="xMidYMid meet">

<g transform="translate(0.000000,364.000000) scale(0.100000,-0.100000)"
fill="#000000" stroke="none">
<path d="M0 1820 l0 -1820 1820 0 1820 0 0 1820 0 1820 -1820 0 -1820 0 0
-1820z m2970 960 l0 -190 -1150 0 -1150 0 0 115 c0 124 13 168 63 216 52 50 9
48 1160 49 l1077 0 0 -190z m0 -554 c0 -56 -5 -118 -11 -137 -18 -54 -58 -100
-105 -120 -40 -18 -74 -19 -731 -17 l-688 3 -3 188 -2 187 770 0 770 0 0 -104z
m-765 -726 l0 -185 -768 -3 -769 -2 4 128 c3 121 5 131 30 170 16 23 45 50 65
61 37 20 57 20 738 18 l700 -2 0 -185z m763 -553 c2 -98 0 -114 -22 -162 -17
-38 -37 -62 -67 -82 l-43 -28 -1083 -3 -1083 -2 0 188 c0 104 3 192 7 195 3 4
520 6 1147 5 l1141 -3 3 -108z"/>
</g>
</svg>
